<svg xmlns="http://www.w3.org/2000/svg" width="286" height="271" fill="none" viewBox="0 0 286 271">
  <path fill="#82ACC1" d="m6 85.5-5-3L143 0v6.5L6 85.5ZM2 190V85l5 3v99l-5 3ZM144 7.5V1l142 82-5.5 3L144 7.5Z"/>
  <path fill="#82ACC1" fill-opacity=".5" d="M6 185V86L143 7l-.5 99L6 185Z"/>
  <path fill="#82ACC1" fill-opacity=".5" d="M142.965 7v99L279 185l-.496-99L142.965 7Z"/>
  <path fill="#82ACC1" d="M280 185.5V86l5.5-3v105l-5.5-2.5Z"/>
  <path fill="#999" d="m8 186-5 3 142 81.5V265L8 186Z"/>
  <path fill="#999" d="M143 270.5V265l136.5-79 5.5 2.5-142 82Z"/>
  <path fill="#D9D9D9" d="M141 265 4 186l137-79 136.5 79L141 265Z"/>
  <path fill="#D9D9D9" d="M141 265 4 186l137-79 136.5 79L141 265Z"/>
  <path stroke="#000" d="M1 83.517 143 1M1 83.517V188.5L143 270M1 83.517 6 86.5M143 1l142 82.22M143 1v6.256m142 75.963V188l-142 82M285 83.22l-5.358 2.978M143 270v-5.5M6 86.5v99m0-99L143 7.256M6 185.5l137 79m-137-79 137-79m0 158 136.5-79m0 0 .142-99.302M279.5 185.5l-136.5-79m136.642-20.302L143 7.256m0 0V106.5"/>
  <g clip-path="url(#a)">
    <path fill="#DEA66C" d="m139.859 87.647-40.75 14.706c-.89.366-1.148.913-1.14 1.706l.078.99 43.023 15.443 42.922-15.197s.047-.153.047-.689c0 0-.039-.706-.266-1.034-.25-.372-.781-.705-1.125-.908-.914-.53-1.828-1.001-3.382-1.613-22.29-8.821-36.946-13.366-36.946-13.366-.945-.246-1.726-.333-2.461-.038Z"/>
    <path fill="#B38251" d="M98.61 137.588c2.374 1.099 6.71 2.543 11.093 4.205 10.188 3.861 23.063 8.553 29.469 10.396.867.252 1.383.372 1.984.394.446.016 1.18-.191 1.18-.191s-1.195-30.182-1.266-31.905c-.07-1.684-1.078-2.242-1.968-2.647-1.391-.623-4.407-1.597-4.407-1.597s-10.562-3.675-21.109-7.547c-5.016-1.843-9.25-3.729-13.805-5.282-.836-.279-1.82.071-1.82.727v32.703c0 .312.273.574.648.744Z"/>
    <path fill="#966239" d="m182.859 137.779-40.437 14.596c-.649.235-1.422-.093-1.422-.607l.07-31.271c0-.3-.133-.962-.265-1.225-.368-.765.429-1.071.789-1.197l40.109-14.46c1.063-.382 2.336.159 2.336.996v31.822c0 .564-.453 1.083-1.18 1.346Z"/>
    <path fill="#212121" d="M164.797 111.026s-22.164 7.935-22.524 8.607c-.359.668 17.391-5.304 19.469-6.054 2.352-.847 20.821-7.76 20.821-8.52.007-.623-17.766 5.967-17.766 5.967Z" opacity=".5"/>
    <g opacity=".5">
      <path fill="#212121" d="M101.008 135.777c2.883 1.018 5.742 2.068 9.304 3.342v-.974c-3.546-1.268-6.414-2.313-9.304-3.341v.973Zm6.07.443c.813.29 1.219.438 1.985.711.007-1.695.007-2.543.015-4.238a513.56 513.56 0 0 1-1.969-.706c-.015 1.696-.023 2.538-.031 4.233Zm-5.047-1.815c.672.24 1.047.377 1.813.65l.039-4.221c-.774-.279-1.149-.411-1.828-.662-.008 1.695-.016 2.543-.024 4.233Z"/>
      <path fill="#212121" d="M105.805 132.026c1.851.662 2.836 1.017 4.468 1.597-.812-1.034-1.257-1.559-2.148-2.62-.914.416-1.391.618-2.32 1.023Zm-4.797-1.723c1.383.503 2.312.837 4.14 1.493-.906-1.066-1.359-1.597-2.195-2.641-.851.432-1.25.656-1.945 1.148Z"/>
    </g>
    <g opacity=".5">
      <path fill="#212121" d="M115.852 140.453c.648.235.984.361 1.632.596-.046-2.012-.07-3.019-.125-5.031-.625-.23-.937-.345-1.562-.569.023 2.002.031 3.003.055 5.004Z"/>
      <path fill="#212121" d="M113.469 140.098c2.375.875 4.219 1.531 6.5 2.384-.016-.574-.649-1.269-1.508-1.591-1.344-.498-2.109-.772-3.469-1.269-.875-.312-1.523-.088-1.523.476Zm4.523-5.682 1 1.482c-.312.464-.476.7-.805 1.159l.704-.038c.375-.35.562-.525.922-.875a71.607 71.607 0 0 0-.844-1.357 98.27 98.27 0 0 1 2.289.908c0 1.958-1.828 2.822-4.578 1.816-2.75-1.001-4.571-3.238-4.571-5.201 2.047.716 3.422 1.187 5.883 2.106Z"/>
    </g>
    <path fill="#FFE0B2" d="M169.703 107.69c-.391-.203-42.336-15.543-42.336-15.543l-13.015 4.71 43.007 15.525.024.016 12.586-4.511s-.024-.044-.094-.099c-.055-.033-.148-.082-.172-.098Z"/>
    <path fill="#BF9F85" d="M169.906 107.821a387.147 387.147 0 0 0-12.547 4.561.42.42 0 0 1 .188.372c-.024.634-.039 1.138-.063 1.767-.109 3.253-.171 6.513-.328 9.767.524-.219 1.156.262 1.633 0 .734-.405 2.297-2.188 2.531-2.242.313-.072.649-.017.969-.028 1.406-.055 4.555-2.062 5.227-2.155.648-.087 2.789.203 2.789.203s-.149-9.926-.203-11.594c-.016-.591-.196-.651-.196-.651Z"/>
  </g>
  <path fill="#B7D5E5" d="M164.513 132.131a.858.858 0 0 1 .702.225l3.926 3.778c.024.02.028.047.022.076-.011.03-.028.044-.059.05l-34.73 6.124a.07.07 0 0 1-.072-.027.068.068 0 0 1-.016-.038.062.062 0 0 1 .01-.04l2.367-4.844.005-.013.006-.013a.767.767 0 0 1 .564-.469l27.275-4.809Zm-.069-.388-27.278 4.81c-.373.065-.71.339-.859.706l-2.367 4.844a.468.468 0 0 0 .502.665l34.734-6.124a.468.468 0 0 0 .244-.797l-3.927-3.778a1.254 1.254 0 0 0-1.049-.326Z"/>
  <g clip-path="url(#b)">
    <path fill="#C7CBCE" stroke="#000" d="M119.917 94.132h-1.584c-.053 0-.106.001-.158.004-.858-.54-1.425-1.465-1.425-2.516V66.012c0-1.663 1.419-3.012 3.167-3.012h41.166c.417 0 .829.08 1.214.231.385.152.734.374 1.028.654.294.28.527.611.686.976.159.365.24.756.239 1.151V91.62c0 1.051-.567 1.977-1.425 2.516l-42.908-.004Zm0 0v1h-1.584c-.708 0-1.239.297-1.669.775-.443.493-.771 1.174-1.025 1.902l-.006.017-.007.016-3.124 7.243c.055 1.322 1.205 2.415 2.665 2.415h50.666c1.46 0 2.61-1.093 2.665-2.414l-3.122-7.239c-.333-.73-.661-1.416-1.098-1.925-.419-.49-.916-.79-1.611-.79h-1.584v-1c1.496 0 2.667-1.148 2.667-2.512V66.011a2.355 2.355 0 0 0-.198-.95 2.5 2.5 0 0 0-.571-.814 2.694 2.694 0 0 0-.867-.55 2.83 2.83 0 0 0-1.031-.197h-41.166c-1.496 0-2.667 1.148-2.667 2.512V91.62c0 1.364 1.171 2.512 2.667 2.512Z"/>
    <path fill="#6A6A6A" d="m112.013 105.112.009.086.269 1.038c.25.524.654.97 1.164 1.282.51.313 1.104.48 1.712.482h50.666a3.261 3.261 0 0 0 2.19-.843 2.928 2.928 0 0 0 .964-2.045h-56.974Z"/>
    <path fill="#71787D" stroke="#000" d="M160.583 90.113c0 .533-.46 1.006-1.083 1.006h-38c-.622 0-1.083-.474-1.083-1.006V67.52c0-.533.461-1.006 1.083-1.006h38c.623 0 1.083.474 1.083 1.006v22.593Z"/>
    <path fill="#C7CBCE" stroke="#000" d="m163.632 100.736.005.013.005.013c.052.118.041.273-.195.471-.24.201-.607.336-.926.336h-10.446l-.047-.002a4.056 4.056 0 0 1-.73-.102 1.69 1.69 0 0 1-.503-.196c-.12-.078-.15-.14-.158-.18v-.001a28.178 28.178 0 0 0-.404-1.613 66.053 66.053 0 0 0-.133-.478 17.28 17.28 0 0 1-.158-.586v-.001a1.488 1.488 0 0 0-.576-.897c-.315-.23-.721-.345-1.196-.345h-13.582c-.904 0-1.64.494-1.835 1.155-.025.085-.076.285-.143.543l-.142.551a38.472 38.472 0 0 1-.446 1.592c-.051.164-.258.326-.64.443a3.072 3.072 0 0 1-.608.116l-.036.002h-11.984c-.337 0-.705-.122-.936-.307a.593.593 0 0 1-.197-.251.372.372 0 0 1 .016-.267l.003-.008 1.086-2.955c.368-.871.8-1.237 1.365-1.237h40.926c.615 0 1.097.384 1.425.965l1.19 3.226Z"/>
    <path fill="#9AAAB4" stroke="#000" d="M135.437 99.816a.485.485 0 0 1 .34-.166h11.107c.148 0 .22.037.257.068.037.03.092.1.123.26l.037.195c.059.303.152.788.24 1.271.114.625.211 1.195.223 1.384a.335.335 0 0 1-.071.244c-.039.045-.114.097-.266.097h-12.32c-.134 0-.189-.048-.222-.098a.46.46 0 0 1-.051-.329l.603-2.926Zm0 0c-.03.175-.142.702-.257 1.247l-.029.135c-.137.649-.277 1.307-.317 1.544l.603-2.926Zm-.007.01.001-.001-.001.001Z"/>
  </g>
  <defs>
    <clipPath id="a">
      <path fill="#fff" d="M0 0h100v70H0z" transform="translate(91 85)"/>
    </clipPath>
    <clipPath id="b">
      <path fill="#fff" d="M0 0h57v54H0z" transform="translate(112 54)"/>
    </clipPath>
  </defs>
</svg>
